<svg id="Capa_1" data-name="Capa 1" xmlns="http://www.w3.org/2000/svg" viewBox="0 0 824 366"><defs><style>.cls-1{stroke:#000;stroke-miterlimit:10;stroke-width:5px;}.cls-2{font-size:117px;font-family:CenturyGothic-Bold, Century Gothic;font-weight:700;}</style></defs><path class="cls-1" d="M179.9,88a2.33,2.33,0,0,1-.59-4.59,47.67,47.67,0,0,1,20.77-.54,2.33,2.33,0,1,1-.83,4.59,43.08,43.08,0,0,0-18.75.47A2.46,2.46,0,0,1,179.9,88Z"/><path class="cls-1" d="M116.43,90a2.33,2.33,0,0,1-1.13-4.37,47.67,47.67,0,0,1,20-5.65,2.34,2.34,0,0,1,.33,4.66,43,43,0,0,0-18.06,5.07A2.32,2.32,0,0,1,116.43,90Z"/><path class="cls-1" d="M85.08,85.68a2.32,2.32,0,0,1-2-1.17,40.26,40.26,0,0,0-7.09-9,2.33,2.33,0,1,1,3.23-3.37,44.62,44.62,0,0,1,7.91,10,2.33,2.33,0,0,1-.87,3.18A2.29,2.29,0,0,1,85.08,85.68Z"/><path class="cls-1" d="M113.54,139.36a19.36,19.36,0,0,1-12.58-4.1c-7.55-6.16-7.07-12.48-6.21-23.94.1-1.35.21-2.79.31-4.33a2.34,2.34,0,0,1,4.66.31c-.11,1.55-.22,3-.32,4.37-.84,11.17-1.15,15.35,4.51,20,6.5,5.31,16.63,2.34,22.07.75l.81-.24a2.34,2.34,0,0,1,1.3,4.49l-.8.23C123.86,137.88,118.8,139.36,113.54,139.36Z"/><path class="cls-1" d="M136.2,148.6a2.38,2.38,0,0,1-1.1-.27c-6-3.2-9.29-10.45-8.67-18.92.68-9.2,5.83-16.85,13.13-19.47a2.33,2.33,0,0,1,1.58,4.39c-6.77,2.43-9.65,9.83-10.06,15.42-.38,5.18,1.06,11.7,6.22,14.46a2.33,2.33,0,0,1-1.1,4.39Z"/><path class="cls-1" d="M78.65,177.06a7.45,7.45,0,0,1-3.78-.9,7.8,7.8,0,0,1-3.92-5.7c-1.39-8.57,8.62-22,17.26-31.66a2.34,2.34,0,0,1,3.49,3.11c-10.94,12.28-17,22.68-16.15,27.8a3.16,3.16,0,0,0,1.64,2.41c3.24,1.86,16.29-4.33,27-16.36a2.33,2.33,0,0,1,4,2.07c-1.32,5.86-.26,7.46,0,7.72.09.1.33.36,1.2.29,5.4-.43,11.93-16.76,14.89-31.64a2.33,2.33,0,0,1,4.57.91c-.69,3.52-7.16,34.43-19.08,35.39a5.8,5.8,0,0,1-5.1-1.89,8,8,0,0,1-1.73-4.88C94.84,171.27,85.14,177.06,78.65,177.06Z"/><path class="cls-1" d="M136.35,162.21a2.34,2.34,0,0,1-1.31-.4c-4.3-2.91-9.36-4.07-13.43-5l-1.38-.32A2.33,2.33,0,0,1,121.3,152l1.35.31c4.45,1,10,2.28,15,5.68a2.34,2.34,0,0,1-1.31,4.27Z"/><path class="cls-1" d="M87.47,132a2.3,2.3,0,0,1-1.72-.76c-14.3-15.64-13.62-53.46-9.6-61.58,4.13-8.34,23.64-20.31,51.68-26.06a154.87,154.87,0,0,1,97.93,11.58,2.33,2.33,0,0,1-2,4.22C154.29,26.53,87,58.28,80.33,71.73c-3.45,7-3.71,42.61,8.87,56.37a2.33,2.33,0,0,1-1.73,3.9Z"/><path class="cls-1" d="M74.57,155.6a6.84,6.84,0,0,1-3.69-1c-1-.66-3.3-2.65-2.23-7,1.83-7.36,17.55-21.18,26.84-26.3a2.33,2.33,0,0,1,2.25,4.09c-9,5-23.19,17.85-24.56,23.34-.14.56-.3,1.56.22,1.88.94.61,3.84.29,7.06-2.29A2.33,2.33,0,1,1,83.38,152,14.67,14.67,0,0,1,74.57,155.6Z"/><path class="cls-1" d="M243.75,86.66a2.33,2.33,0,0,1-.59-4.59c10.56-2.8,14.78-13.08,15.2-21.78.37-7.5-2.11-14-5.9-15.39-5.38-2-18.12,8-26.56,14.61-3.13,2.46-6.09,4.78-8.42,6.34a2.34,2.34,0,1,1-2.6-3.88c2.19-1.46,5.08-3.73,8.14-6.13,10.89-8.55,23.23-18.23,31.07-15.31,5.82,2.17,9.41,10.21,8.93,20s-5.66,22.62-18.67,26.07A2.46,2.46,0,0,1,243.75,86.66Z"/><path class="cls-1" d="M230,55.69a2.33,2.33,0,0,1-2.19-1.52c-1.71-4.61-6.93-18.64-12.13-19.74-4.93-1-11.9,5.36-15.2,14a2.33,2.33,0,1,1-4.36-1.67c3.69-9.66,12.38-18.63,20.53-16.9,6.78,1.44,11.47,11.75,15.54,22.68A2.35,2.35,0,0,1,230,55.69Z"/><path class="cls-1" d="M299.24,327.07,298,327a2.34,2.34,0,0,1,.24-4.67c5.38.29,10.34-1.64,14.78-5.69,9.76-8.88,14.68-25.54,15.22-38.11,2.51-58.16-37-143.57-77.32-197.88a2.34,2.34,0,1,1,3.75-2.79c40.81,55,80.79,141.63,78.23,200.87-.58,13.54-6,31.58-16.74,41.37C311.09,324.74,305.41,327.07,299.24,327.07Z"/><path class="cls-1" d="M256.11,327H256c-5.11-.24-9.09-5-10.91-13.17-2.12-9.47-.75-21.65,5.17-24.79a7.49,7.49,0,0,1,7-.43c3.61,1.71,6.14,6.55,7.74,14.8a2.33,2.33,0,1,1-4.58.89c-1.75-9-4.19-11-5.17-11.48-.49-.24-1.32-.46-2.83.34-3.26,1.73-4.64,11.46-2.81,19.65,1,4.51,3.27,9.37,6.58,9.52a2.34,2.34,0,0,1-.11,4.67Z"/><path class="cls-1" d="M67.52,327h-.11c-8.48-.4-15.17-13.37-17.21-22.45-1.75-7.81-.54-13.46,3.32-15.51a8.37,8.37,0,0,1,7.06-.55c5.23,2,8.81,8.91,10.9,14.39a2.33,2.33,0,1,1-4.36,1.66c-2.43-6.38-5.41-10.64-8.18-11.68a3.73,3.73,0,0,0-3.23.3c-1.72.92-2.12,5.18-1,10.37,2.16,9.63,8.29,18.59,12.87,18.8a2.34,2.34,0,0,1-.11,4.67Z"/><path class="cls-1" d="M259,294.7h-.2a2.33,2.33,0,0,1-2.12-2.52c1.45-17.17,13.62-28.76,34.28-32.62a2.33,2.33,0,0,1,.86,4.59c-13,2.43-28.88,9.34-30.49,28.42A2.35,2.35,0,0,1,259,294.7Z"/><path class="cls-1" d="M299.9,327H202.81a2.34,2.34,0,1,1,0-4.67H299.9a2.34,2.34,0,0,1,0,4.67Z"/><path class="cls-1" d="M161.13,327h-8.38a2.34,2.34,0,0,1,0-4.67h8.38a2.34,2.34,0,0,1,0,4.67Z"/><path class="cls-1" d="M108.28,327H67.52a2.34,2.34,0,1,1,0-4.67h40.76a2.34,2.34,0,1,1,0,4.67Z"/><path class="cls-1" d="M95.91,327a27.52,27.52,0,0,1-22.38-10.57c-11.19-13.86-12.38-38.29-8.75-55.12,5.44-25.21,13-40.84,19.14-53.4,6.82-14,12.21-25.1,12.21-43.39a2.34,2.34,0,0,1,4.67,0c0,19.36-5.59,30.87-12.68,45.43-6.31,13-13.46,27.68-18.78,52.34-3.51,16.28-2,39.1,7.83,51.21a23,23,0,0,0,18.75,8.83,2.34,2.34,0,0,1,0,4.67Z"/><path class="cls-1" d="M176.56,333a45.9,45.9,0,0,1-6.29-.4c-5.82-.82-9.57-2.78-10.85-5.67-2.49-5.62.81-8.33,3.45-10.51.48-.39,1-.79,1.44-1.22,0-13.05.77-37.12,5.09-58.77a2.33,2.33,0,0,1,4.57.91c-4.34,21.83-5,46.25-5,58.87a2.33,2.33,0,0,1-.69,1.65,32.19,32.19,0,0,1-2.45,2.17c-2.64,2.17-3.17,2.71-2.15,5,.42.94,2.56,2.28,7.23,2.94,11.29,1.59,28.31-1.93,34.68-9.52,3.26-3.89,12.08-27.74,19.17-46.91,2-5.5,4-10.8,5.76-15.49a2.34,2.34,0,1,1,4.37,1.65c-1.77,4.68-3.73,10-5.76,15.46-9.48,25.63-16.46,44.1-20,48.29C202.15,329.86,187.47,333,176.56,333Z"/><path class="cls-1" d="M127.41,333.28c-2.21,0-4.32-.1-6.23-.29-7.57-.77-12.11-2.82-13.47-6.09-1.75-4.2.75-9,4.47-11.72-5.15-16.63-10-32.54-13.1-58a2.33,2.33,0,1,1,4.63-.56c3.12,25.5,8,41.33,13.22,58.09l.25.82a2.33,2.33,0,0,1-1.2,2.78c-2.55,1.26-4.89,4.56-4,6.78.34.82,2.79,2.55,9.63,3.24,12.26,1.25,27.13-1.7,30-5.94,3.05-4.47,5.17-38.11,5.17-65.49a2.33,2.33,0,1,1,4.66,0c0,16.5-1.07,60.91-6,68.11C151.57,330.83,138.29,333.28,127.41,333.28Z"/><path class="cls-1" d="M307.83,251.05a2.34,2.34,0,0,1-2.3-1.94,75.94,75.94,0,0,0-2.73-11,2.34,2.34,0,1,1,4.44-1.45,81.12,81.12,0,0,1,2.89,11.69,2.34,2.34,0,0,1-1.91,2.7Z"/><path class="cls-1" d="M302,228a2.34,2.34,0,0,1-2.28-1.82,76.43,76.43,0,0,0-3.32-10.86,2.33,2.33,0,1,1,4.35-1.69,82.38,82.38,0,0,1,3.53,11.52,2.34,2.34,0,0,1-1.76,2.79A2.37,2.37,0,0,1,302,228Z"/><path class="cls-1" d="M315.3,237.38a2.33,2.33,0,0,1-2.25-1.75,99,99,0,0,0-3.38-10.5,2.33,2.33,0,1,1,4.35-1.68,101,101,0,0,1,3.54,11,2.32,2.32,0,0,1-1.67,2.84A2.39,2.39,0,0,1,315.3,237.38Z"/><text class="cls-2" transform="translate(356.25 143.58)">Astro<tspan x="0" y="140.4">Chigüis</tspan></text></svg>