<?xml version="1.0" standalone="no"?>
<!DOCTYPE svg PUBLIC "-//W3C//DTD SVG 20010904//EN"
 "http://www.w3.org/TR/2001/REC-SVG-20010904/DTD/svg10.dtd">
<svg version="1.0" xmlns="http://www.w3.org/2000/svg"
 width="985.000000pt" height="985.000000pt" viewBox="0 0 985.000000 985.000000"
 preserveAspectRatio="xMidYMid meet">

<g transform="translate(0.000000,985.000000) scale(0.100000,-0.100000)"
fill="#000000" stroke="none">
<path d="M5172 9776 c-32 -40 -76 -101 -97 -136 -31 -51 -41 -61 -59 -56 -159
43 -551 99 -811 116 -920 59 -1975 -184 -2602 -599 -133 -88 -284 -224 -333
-300 -64 -100 -93 -231 -110 -491 -34 -502 73 -1065 265 -1400 l25 -45 -153
-155 c-222 -225 -307 -362 -307 -493 0 -99 48 -187 124 -228 25 -13 46 -28 46
-32 0 -4 -9 -24 -19 -45 -10 -20 -31 -76 -46 -124 -24 -77 -27 -100 -23 -185
5 -118 30 -176 106 -245 121 -108 293 -103 540 17 130 63 123 68 96 -75 -40
-211 -111 -408 -270 -741 -310 -655 -354 -758 -469 -1104 -118 -354 -206 -712
-236 -955 -8 -58 -14 -202 -14 -320 l0 -216 -85 0 c-72 1 -94 -4 -145 -27 -70
-33 -107 -65 -142 -124 -117 -199 -36 -621 180 -943 72 -107 163 -192 255
-237 l76 -38 644 -3 643 -3 36 -36 c49 -48 158 -98 273 -125 85 -20 122 -22
350 -23 166 0 285 5 340 13 160 26 311 70 416 122 133 66 176 68 241 10 25
-22 70 -51 100 -65 273 -130 839 -96 1188 71 l60 29 1585 5 1585 5 75 23 c384
119 692 515 835 1076 66 261 70 296 70 676 0 375 -10 500 -66 841 -253 1549
-1125 3520 -2267 5128 l-46 64 23 36 c46 75 111 219 134 301 106 364 14 770
-206 914 -174 114 -376 76 -695 -130 -45 -30 -86 -54 -90 -54 -4 0 -31 52 -61
115 -30 64 -76 149 -103 190 l-49 75 -374 0 -373 0 -60 -74z m545 -92 c40 -42
71 -93 127 -207 83 -169 96 -203 75 -194 -100 44 -359 144 -451 174 -65 21
-118 42 -118 47 0 16 72 106 120 149 59 53 123 87 165 87 23 0 41 -12 82 -56z
m1103 -290 c68 -58 103 -176 103 -349 -2 -311 -149 -553 -386 -634 -101 -35
-137 -75 -137 -154 0 -90 59 -149 148 -149 50 1 161 38 218 72 l33 21 71 -101
c394 -556 791 -1226 1129 -1910 642 -1295 1022 -2506 1101 -3504 15 -196 13
-515 -6 -658 -68 -526 -319 -969 -624 -1098 -83 -35 -235 -41 -933 -38 l-619
3 -20 25 c-36 45 -68 118 -90 208 -49 205 -12 532 62 532 26 0 74 -101 105
-223 14 -54 33 -112 42 -128 24 -41 94 -73 141 -65 68 11 132 80 132 143 0 52
-38 197 -78 298 l-35 90 17 85 c11 55 35 121 67 189 44 89 63 116 137 191 145
144 309 230 569 295 147 37 175 50 197 93 44 85 17 169 -67 211 l-49 24 -106
-23 c-519 -110 -892 -407 -1017 -811 l-18 -56 -57 -6 c-215 -23 -343 -214
-366 -548 -10 -146 13 -306 73 -511 5 -17 -22 -18 -476 -18 -324 0 -481 3
-481 10 0 6 11 32 24 59 81 159 233 544 525 1327 152 409 201 552 201 586 0
61 -32 107 -92 132 -42 17 -52 18 -90 7 -81 -25 -85 -33 -299 -611 -406 -1094
-515 -1352 -606 -1442 -96 -94 -268 -171 -488 -218 -125 -27 -395 -38 -504
-21 -79 12 -165 45 -159 59 1 5 35 37 74 71 98 84 104 100 104 304 0 457 52
1092 124 1517 36 210 35 244 -6 287 -68 73 -166 71 -231 -6 -19 -23 -30 -57
-46 -146 -23 -124 -65 -411 -79 -535 -4 -44 -6 70 -4 280 l4 355 -24 35 c-64
95 -203 91 -254 -7 -19 -38 -21 -63 -27 -394 -15 -803 -72 -1496 -136 -1661
-22 -57 -164 -118 -361 -153 -125 -22 -419 -31 -533 -16 -84 11 -217 46 -217
57 0 22 39 70 85 104 62 46 85 83 85 135 0 19 -27 122 -59 229 -183 594 -295
1093 -352 1563 -14 117 -36 167 -89 194 -100 54 -220 -16 -220 -128 0 -87 74
-552 131 -816 52 -245 115 -482 224 -849 l38 -127 -35 -43 c-19 -24 -48 -65
-63 -92 l-29 -49 -205 6 c-226 7 -284 18 -388 70 -256 127 -422 438 -485 907
-16 123 -16 478 1 600 38 281 157 732 283 1068 76 206 154 383 325 742 85 179
177 378 204 443 103 251 165 484 190 724 l12 112 29 -24 c42 -36 129 -59 192
-51 140 18 289 153 390 354 14 28 32 52 39 52 63 0 297 -104 297 -132 0 -28
102 -25 160 5 75 38 103 134 60 205 -35 57 -196 144 -347 189 -35 10 -63 23
-63 29 0 5 9 37 21 71 l20 61 49 -47 c75 -72 141 -104 199 -99 82 8 135 66
135 149 0 58 -17 85 -90 140 -70 54 -109 120 -130 220 -26 124 -5 261 59 382
42 80 94 130 177 172 75 38 103 70 115 132 10 56 -28 122 -89 152 -45 22 -52
23 -95 12 -153 -41 -321 -197 -401 -373 -33 -75 -65 -195 -75 -285 l-7 -62
-91 -21 c-129 -31 -265 -37 -347 -16 -126 32 -227 130 -251 244 -11 56 -11 94
7 442 6 121 5 126 -18 160 -31 45 -101 75 -152 66 -49 -9 -103 -59 -115 -104
-11 -43 -31 -299 -31 -395 l0 -64 -55 -37 -56 -37 -44 93 c-111 236 -171 525
-182 873 l-6 190 32 -29 c25 -24 42 -30 88 -34 48 -3 64 0 93 20 42 28 70 80
70 128 0 53 -57 146 -196 317 l-26 33 64 63 c132 129 401 284 693 400 764 302
1676 382 2507 221 266 -51 619 -153 822 -237 l60 -25 -48 -33 c-51 -36 -86
-91 -86 -135 0 -76 77 -154 150 -154 48 0 84 21 241 141 526 401 620 464 774
520 68 25 88 23 125 -7z m-4920 -2644 c50 -78 159 -172 253 -219 125 -62 193
-74 375 -68 83 2 152 3 152 1 0 -3 -22 -71 -49 -152 -72 -218 -158 -398 -232
-482 l-30 -35 5 50 c2 28 8 75 11 105 8 67 -13 113 -64 147 -38 25 -107 31
-144 12 -12 -7 -76 -64 -142 -128 -225 -220 -471 -377 -619 -397 l-46 -7 0 49
c1 129 173 417 423 707 81 93 103 139 94 193 -15 92 -130 154 -210 113 l-22
-11 20 21 c26 27 178 150 186 151 4 0 21 -23 39 -50z m-312 -192 c-35 -40 -99
-116 -141 -169 -42 -52 -88 -101 -102 -107 -14 -6 -25 -9 -25 -5 0 19 98 132
203 236 65 64 121 117 124 117 3 0 -24 -33 -59 -72z m-822 -4909 c49 -30 126
-152 173 -273 22 -58 56 -139 76 -181 39 -82 140 -239 174 -269 37 -34 26 -39
-74 -34 -83 5 -99 8 -130 33 -142 107 -285 430 -285 641 0 60 11 104 27 104 3
0 21 -9 39 -21z m3215 -582 c-20 -20 -22 1 -9 114 l13 114 3 -109 c2 -65 -1
-113 -7 -119z"/>
<path d="M3080 8463 c-244 -26 -583 -149 -637 -232 -42 -62 -24 -158 37 -201
55 -39 103 -38 200 8 153 71 291 109 467 127 73 8 117 34 144 85 39 73 9 164
-66 200 -39 19 -66 21 -145 13z"/>
<path d="M4750 8400 c-109 -12 -236 -38 -271 -55 -91 -48 -103 -174 -24 -244
45 -39 85 -46 170 -26 101 23 336 31 456 15 121 -16 165 -6 205 45 56 74 37
175 -40 220 -69 39 -327 62 -496 45z"/>
<path d="M8210 4329 c-53 -21 -100 -84 -100 -135 0 -14 22 -97 50 -183 27 -86
54 -175 60 -199 6 -24 26 -60 44 -80 30 -32 39 -36 92 -39 76 -5 117 18 146
85 19 43 20 52 9 107 -20 96 -80 285 -112 352 -24 51 -37 65 -72 82 -47 23
-78 25 -117 10z"/>
<path d="M8600 4008 c-85 -59 -91 -109 -31 -282 23 -65 48 -146 57 -179 20
-79 47 -115 101 -139 69 -30 144 -7 183 58 19 30 22 45 17 97 -7 80 -103 370
-135 409 -52 61 -132 76 -192 36z"/>
<path d="M8416 3620 c-56 -17 -106 -83 -106 -138 0 -17 9 -60 21 -97 11 -38
34 -127 50 -199 32 -142 44 -167 92 -196 88 -54 207 1 223 102 11 65 -74 414
-114 467 -41 55 -106 79 -166 61z"/>
</g>
</svg>
